<svg width="362" height="93" viewBox="0 0 362 93" fill="none" xmlns="http://www.w3.org/2000/svg">
<path d="M288.837 87.4441H292.654V78.8929L301.159 65.9937H296.858L290.818 75.4628L284.874 65.9937H280.428L288.933 78.9413V87.4441H288.837ZM267.38 87.4441H271.15V69.5205H277.915V66.042H260.567V69.5205H267.332V87.4441H267.38ZM252.013 87.4441H255.782V66.042H252.013V87.4441ZM239.11 87.734C243.605 87.734 246.746 85.3667 246.746 81.3568V81.3085C246.746 77.7818 244.426 76.1392 239.884 75.028C235.776 74.0618 234.761 73.3371 234.761 71.6462V71.5979C234.761 70.1968 236.066 69.0374 238.241 69.0374C240.222 69.0374 242.107 69.8104 244.04 71.2597L246.069 68.4093C243.895 66.6701 241.43 65.7039 238.289 65.7039C234.036 65.7039 230.992 68.2644 230.992 71.8878V71.9361C230.992 75.8976 233.553 77.202 238.144 78.3132C242.107 79.2311 242.976 80.0524 242.976 81.5984V81.6467C242.976 83.241 241.527 84.3522 239.207 84.3522C236.598 84.3522 234.52 83.3376 232.442 81.5501L230.17 84.2555C232.78 86.6228 235.873 87.734 239.11 87.734ZM212.677 76.6706V69.4722H218.138C220.94 69.4722 222.583 70.7283 222.583 72.9989V73.0472C222.583 75.2213 220.892 76.6223 218.186 76.6223H212.677V76.6706ZM208.908 87.4441H212.677V79.9558H217.364L222.632 87.4441H227.078L221.279 79.3278C224.275 78.4581 226.353 76.3807 226.353 72.854V72.8057C226.353 70.9215 225.725 69.3272 224.565 68.1678C223.212 66.815 221.085 66.042 218.379 66.042H208.859V87.4441H208.908ZM187.79 87.4441H203.833V84.0623H191.559V78.3132H202.287V74.9314H191.559V69.3755H203.688V65.9937H187.838V87.4441H187.79ZM171.311 87.5891H174.645L183.489 66.042H179.43L173.002 82.468L166.527 66.042H162.371L171.311 87.5891ZM154.156 87.4441H157.925V66.042H154.156V87.4441ZM129.172 87.4441H132.893V72.2259L144.684 87.4441H147.825V66.042H144.104V80.8254L132.651 66.042H129.172V87.4441ZM114.191 87.7823C119.797 87.7823 123.373 84.5937 123.373 78.1683V66.042H119.604V78.3615C119.604 82.3231 117.574 84.3039 114.24 84.3039C110.857 84.3039 108.827 82.1781 108.827 78.2166V66.042H105.058V78.3615C105.106 84.5937 108.634 87.7823 114.191 87.7823Z" fill="black"/>
<path d="M343.347 56.428H347.068V41.2098L358.859 56.428H362V35.0259H358.279V49.8093L346.826 35.0259H343.347V56.428ZM324.21 47.9735L327.883 39.4223L331.604 47.9735H324.21ZM316.768 56.428H320.634L322.857 51.2587H332.957L335.131 56.428H339.094L329.671 34.881H326.191L316.768 56.428ZM306.185 56.428H309.954V38.5527H316.768V35.0742H299.419V38.5527H306.185V56.428ZM290.818 56.428H294.587V35.0259H290.818V56.428ZM271.101 56.428H286.082V52.9979H274.822V35.0259H271.101V56.428ZM254.768 53.3361C250.515 53.3361 247.47 49.9059 247.47 45.7511V45.7028C247.47 41.548 250.418 38.1662 254.671 38.1662C258.923 38.1662 261.968 41.6446 261.968 45.7994V45.8477C261.968 49.9542 259.02 53.3361 254.768 53.3361ZM254.671 56.8145C261.243 56.8145 265.882 51.7901 265.882 45.7511V45.7028C265.882 39.6638 261.291 34.6877 254.719 34.6877C248.147 34.6877 243.508 39.7122 243.508 45.7511V45.7994C243.508 51.8384 248.099 56.8145 254.671 56.8145ZM227.222 46.1859V38.4561H231.62C234.423 38.4561 236.211 39.7605 236.211 42.2727V42.321C236.211 44.5433 234.423 46.1376 231.62 46.1376H227.222V46.1859ZM223.453 56.428H227.222V49.5677H231.475C236.163 49.5677 240.029 47.0555 240.029 42.2727V42.2244C240.029 37.9246 236.936 35.0742 231.91 35.0742H223.453V56.428ZM207.119 53.3361C202.867 53.3361 199.822 49.9059 199.822 45.7511V45.7028C199.822 41.548 202.77 38.1662 207.023 38.1662C211.275 38.1662 214.32 41.6446 214.32 45.7994V45.8477C214.32 49.9542 211.372 53.3361 207.119 53.3361ZM207.071 56.8145C213.643 56.8145 218.282 51.7901 218.282 45.7511V45.7028C218.282 39.6638 213.692 34.6877 207.119 34.6877C200.547 34.6877 195.908 39.7122 195.908 45.7511V45.7994C195.908 51.8384 200.499 56.8145 207.071 56.8145ZM177.883 45.6545V38.4561H183.344C186.147 38.4561 187.79 39.7122 187.79 41.9828V42.0311C187.79 44.2051 186.098 45.6062 183.392 45.6062H177.883V45.6545ZM174.114 56.428H177.883V48.988H182.57L187.838 56.428H192.284L186.485 48.3116C189.433 47.442 191.559 45.3646 191.559 41.8379V41.7896C191.559 39.9054 190.931 38.3111 189.771 37.1516C188.418 35.7989 186.291 35.0259 183.585 35.0259H174.065V56.428H174.114ZM158.94 56.428H162.709V38.5527H169.475V35.0742H152.126V38.5527H158.891V56.428H158.94ZM132.603 56.428H148.647V53.0462H136.372V47.3454H147.1V43.9636H136.372V38.4077H148.502V35.0259H132.651V56.428H132.603ZM105.444 56.428H109.165V41.1615L115.882 51.2103H115.979L122.745 41.1132V56.4763H126.514V35.0259H122.503L115.979 45.1714L109.455 35.0742H105.444V56.428Z" fill="black"/>
<path d="M226.256 25.4602H229.977V10.242L241.768 25.4602H244.909V4.05812H241.188V18.8415L229.735 4.05812H226.256V25.4602ZM209.922 22.3199C205.67 22.3199 202.674 18.8898 202.674 14.735V14.6867C202.674 10.5319 205.621 7.15007 209.874 7.15007C214.126 7.15007 217.123 10.6285 217.123 14.7833V14.8316C217.123 18.9864 214.175 22.3199 209.922 22.3199ZM209.874 25.7984C216.446 25.7984 221.085 20.774 221.085 14.735V14.6867C221.085 8.64773 216.494 3.67163 209.922 3.67163C203.35 3.67163 198.711 8.69605 198.711 14.735V14.7833C198.711 20.8223 203.302 25.7984 209.874 25.7984ZM183.102 7.48825C187.596 7.48825 190.544 10.5802 190.544 14.7833V14.8316C190.544 19.0347 187.596 22.0301 183.102 22.0301H178.898V7.48825H183.102ZM175.128 25.4602H183.102C189.819 25.4602 194.458 20.774 194.458 14.7833V14.735C194.458 8.69605 189.819 4.10644 183.102 4.10644H175.128V25.4602ZM150.338 25.4602H154.059V10.242L165.85 25.4602H168.991V4.05812H165.27V18.8415L153.866 4.05812H150.386V25.4602H150.338ZM134.004 22.3199C129.752 22.3199 126.707 18.8898 126.707 14.735V14.6867C126.707 10.5319 129.655 7.15007 133.908 7.15007C138.16 7.15007 141.205 10.6285 141.205 14.7833V14.8316C141.253 18.9864 138.305 22.3199 134.004 22.3199ZM133.956 25.7984C140.528 25.7984 145.167 20.774 145.167 14.735V14.6867C145.167 8.64773 140.576 3.67163 134.004 3.67163C127.432 3.67163 122.793 8.69605 122.793 14.735V14.7833C122.793 20.8223 127.384 25.7984 133.956 25.7984ZM105.444 25.4602H120.473V22.0301H109.214V4.05812H105.444V25.4602Z" fill="black"/>
<path d="M2.41623 44.0603C3.76932 44.0603 4.83247 45.1232 4.83247 46.4759C4.83247 47.8286 3.76932 48.8915 2.41623 48.8915C1.11147 48.8915 0 47.8286 0 46.4759C0 45.1715 1.06314 44.0603 2.41623 44.0603Z" fill="black"/>
<path d="M10.9214 44.0603C12.2261 44.0603 13.3376 45.1232 13.3376 46.4759C13.3376 47.8286 12.2745 48.8915 10.9214 48.8915C9.61659 48.8915 8.50513 47.8286 8.50513 46.4759C8.50513 45.1715 9.56827 44.0603 10.9214 44.0603Z" fill="black"/>
<path d="M19.5232 44.0603C20.8279 44.0603 21.9394 45.1232 21.9394 46.4759C21.9394 47.8286 20.8763 48.8915 19.5232 48.8915C18.2184 48.8915 17.1069 47.8286 17.1069 46.4759C17.1069 45.1715 18.1701 44.0603 19.5232 44.0603Z" fill="black"/>
<path d="M27.5451 44.0603C28.8499 44.0603 29.9614 45.1232 29.9614 46.4759C29.9614 47.8286 28.8982 48.8915 27.5451 48.8915C26.192 48.8915 25.1289 47.8286 25.1289 46.4759C25.1289 45.1715 26.192 44.0603 27.5451 44.0603Z" fill="black"/>
<path d="M24.3073 38.0696C25.6121 38.0696 26.7236 39.1324 26.7236 40.4852C26.7236 41.8379 25.6604 42.9007 24.3073 42.9007C23.0026 42.9007 21.8911 41.8379 21.8911 40.4852C21.8911 39.1324 23.0026 38.0696 24.3073 38.0696Z" fill="black"/>
<path d="M16.2854 35.6541C17.5901 35.6541 18.7016 36.7169 18.7016 38.0696C18.7016 39.3741 17.6385 40.4852 16.2854 40.4852C14.9806 40.4852 13.8691 39.4224 13.8691 38.0696C13.8691 36.7169 14.9806 35.6541 16.2854 35.6541Z" fill="black"/>
<path d="M7.78025 33.2385C9.08501 33.2385 10.1965 34.3014 10.1965 35.6541C10.1965 37.0068 9.13334 38.0697 7.78025 38.0697C6.47548 38.0697 5.36401 37.0068 5.36401 35.6541C5.36401 34.3497 6.47548 33.2385 7.78025 33.2385Z" fill="black"/>
<path d="M7.10363 66.4285C8.26342 65.7522 9.71316 66.1386 10.3897 67.2981C11.0662 68.4576 10.6797 69.907 9.51986 70.5833C8.36007 71.2597 6.91033 70.8732 6.23378 69.7137C5.55724 68.6025 5.94383 67.1049 7.10363 66.4285Z" fill="black"/>
<path d="M14.4974 62.1771C15.6572 61.5007 17.107 61.8872 17.7835 63.0467C18.46 64.2061 18.0734 65.6555 16.9137 66.3319C15.7539 67.0082 14.3041 66.6217 13.6276 65.4622C12.951 64.3511 13.3376 62.8534 14.4974 62.1771Z" fill="black"/>
<path d="M21.9393 57.9258C23.0991 57.2495 24.5489 57.636 25.2254 58.7954C25.9019 59.9549 25.5153 61.4043 24.3556 62.0806C23.1958 62.757 21.746 62.3705 21.0695 61.211C20.3929 60.0515 20.7795 58.5539 21.9393 57.9258Z" fill="black"/>
<path d="M28.8499 53.9158C30.0097 53.2395 31.4595 53.626 32.136 54.7854C32.8125 55.9449 32.4259 57.3943 31.2662 58.0706C30.1064 58.747 28.6566 58.3605 27.9801 57.201C27.3035 56.0415 27.7385 54.5439 28.8499 53.9158Z" fill="black"/>
<path d="M23.0992 50.2925C24.259 49.6162 25.7088 50.0027 26.3853 51.1621C27.0619 52.3216 26.6753 53.771 25.5155 54.4473C24.3557 55.1237 22.9059 54.7372 22.2294 53.5777C21.5528 52.4182 21.9394 50.9689 23.0992 50.2925Z" fill="black"/>
<path d="M14.9322 52.2249C16.092 51.5485 17.5418 51.935 18.2183 53.0945C18.8949 54.254 18.5083 55.7033 17.3485 56.3797C16.1887 57.0561 14.7389 56.6696 14.0624 55.5101C13.3859 54.3506 13.7724 52.9013 14.9322 52.2249Z" fill="black"/>
<path d="M6.33064 54.399C7.49043 53.7226 8.94017 54.1091 9.61671 55.2686C10.2933 56.4281 9.90666 57.8774 8.74687 58.5538C7.58708 59.2301 6.13734 58.8437 5.46079 57.6842C4.78425 56.5247 5.21917 55.027 6.33064 54.399Z" fill="black"/>
<path d="M22.3744 83.4827C23.051 82.3232 24.5007 81.9367 25.6605 82.6131C26.8203 83.2895 27.2069 84.7388 26.5303 85.8983C25.8538 87.0578 24.404 87.4443 23.2443 86.7679C22.0845 86.0915 21.6979 84.6422 22.3744 83.4827Z" fill="black"/>
<path d="M26.6268 76.0909C27.3034 74.9314 28.7531 74.5449 29.9129 75.2212C31.0727 75.8976 31.4593 77.347 30.7828 78.5064C30.1062 79.6659 28.6565 80.0524 27.4967 79.376C26.3369 78.6997 25.9503 77.2503 26.6268 76.0909Z" fill="black"/>
<path d="M30.9279 68.6509C31.6044 67.4914 33.0542 67.1049 34.214 67.7813C35.3737 68.4577 35.7603 69.907 35.0838 71.0665C34.4072 72.226 32.9575 72.6125 31.7977 71.9361C30.6379 71.308 30.2513 69.8104 30.9279 68.6509Z" fill="black"/>
<path d="M34.9386 61.7422C35.6152 60.5827 37.0649 60.1962 38.2247 60.8726C39.3845 61.549 39.7711 62.9983 39.0945 64.1578C38.418 65.3173 36.9683 65.7038 35.8085 65.0274C34.6487 64.3511 34.2621 62.8534 34.9386 61.7422Z" fill="black"/>
<path d="M28.1249 61.5008C28.8014 60.3413 30.2512 59.9548 31.411 60.6312C32.5708 61.3075 32.9574 62.7569 32.2808 63.9163C31.6043 65.0758 30.1545 65.4623 28.9947 64.786C27.8349 64.1096 27.4484 62.6602 28.1249 61.5008Z" fill="black"/>
<path d="M22.036 67.2498C22.7126 66.0903 24.1623 65.7038 25.3221 66.3802C26.4819 67.0565 26.8685 68.5059 26.1919 69.6654C25.5154 70.8249 24.0657 71.2113 22.9059 70.535C21.7461 69.8586 21.3595 68.4093 22.036 67.2498Z" fill="black"/>
<path d="M15.6571 73.3855C16.3336 72.226 17.7834 71.8396 18.9432 72.5159C20.103 73.1923 20.4896 74.6416 19.813 75.8011C19.1365 76.9606 17.6867 77.3471 16.5269 76.6707C15.4155 76.0427 15.0289 74.545 15.6571 73.3855Z" fill="black"/>
<path d="M44.1204 90.5845C44.1204 89.2801 45.1835 88.1689 46.5366 88.1689C47.8897 88.1689 48.9528 89.2318 48.9528 90.5845C48.9528 91.9373 47.8897 93.0001 46.5366 93.0001C45.1835 93.0001 44.1204 91.8889 44.1204 90.5845Z" fill="black"/>
<path d="M44.1204 82.0816C44.1204 80.7289 45.1835 79.666 46.5366 79.666C47.8897 79.666 48.9528 80.7289 48.9528 82.0816C48.9528 83.386 47.8897 84.4972 46.5366 84.4972C45.1835 84.4972 44.1204 83.386 44.1204 82.0816Z" fill="black"/>
<path d="M44.1204 73.482C44.1204 72.1776 45.1835 71.0664 46.5366 71.0664C47.8897 71.0664 48.9528 72.1293 48.9528 73.482C48.9528 74.8347 47.8897 75.8976 46.5366 75.8976C45.1835 75.8976 44.1204 74.8347 44.1204 73.482Z" fill="black"/>
<path d="M44.1204 65.4625C44.1204 64.1097 45.1835 63.0469 46.5366 63.0469C47.8897 63.0469 48.9528 64.1097 48.9528 65.4625C48.9528 66.7669 47.8897 67.878 46.5366 67.878C45.1835 67.878 44.1204 66.8152 44.1204 65.4625Z" fill="black"/>
<path d="M38.0798 68.6993C38.0798 67.3465 39.143 66.2837 40.4961 66.2837C41.8492 66.2837 42.9123 67.3465 42.9123 68.6993C42.9123 70.0037 41.8492 71.1149 40.4961 71.1149C39.143 71.0665 38.0798 70.0037 38.0798 68.6993Z" fill="black"/>
<path d="M35.6636 76.7191C35.6636 75.4146 36.7267 74.3035 38.0798 74.3035C39.4329 74.3035 40.496 75.3663 40.496 76.7191C40.496 78.0718 39.4329 79.1346 38.0798 79.1346C36.775 79.0863 35.6636 78.0235 35.6636 76.7191Z" fill="black"/>
<path d="M33.2473 85.2217C33.2473 83.869 34.3105 82.8062 35.6635 82.8062C36.9683 82.8062 38.0798 83.869 38.0798 85.2217C38.0798 86.5262 37.0166 87.6373 35.6635 87.6373C34.3588 87.589 33.2473 86.5262 33.2473 85.2217Z" fill="black"/>
<path d="M66.4948 85.8983C65.8182 84.7388 66.2048 83.2895 67.3646 82.6131C68.5244 81.9367 69.9741 82.3232 70.6507 83.4827C71.3272 84.6422 70.9406 86.0915 69.7808 86.7679C68.621 87.4443 67.123 87.0095 66.4948 85.8983Z" fill="black"/>
<path d="M62.1937 78.5064C61.5172 77.347 61.9038 75.8976 63.0636 75.2212C64.2234 74.5449 65.6731 74.9314 66.3497 76.0909C67.0262 77.2503 66.6396 78.6997 65.4798 79.376C64.3684 80.0524 62.8703 79.6659 62.1937 78.5064Z" fill="black"/>
<path d="M57.9413 71.0665C57.2648 69.907 57.6514 68.4577 58.8111 67.7813C59.9709 67.1049 61.4207 67.4914 62.0972 68.6509C62.7738 69.8104 62.3872 71.2597 61.2274 71.9361C60.0676 72.6125 58.5695 72.226 57.9413 71.0665Z" fill="black"/>
<path d="M53.9303 64.1097C53.2538 62.9502 53.6404 61.5009 54.8002 60.8245C55.96 60.1482 57.4097 60.5346 58.0862 61.6941C58.7628 62.8536 58.3762 64.303 57.2164 64.9793C56.0566 65.6557 54.5585 65.2692 53.9303 64.1097Z" fill="black"/>
<path d="M50.306 69.9071C49.6295 68.7476 50.0161 67.2982 51.1759 66.6219C52.3357 65.9455 53.7854 66.332 54.462 67.4915C55.1385 68.651 54.7519 70.1003 53.5921 70.7767C52.4323 71.453 50.9826 71.0666 50.306 69.9071Z" fill="black"/>
<path d="M52.2389 78.0716C51.5624 76.9121 51.949 75.4628 53.1088 74.7864C54.2685 74.11 55.7183 74.5448 56.3948 75.656C57.0714 76.8155 56.6848 78.2648 55.525 78.9412C54.3652 79.6176 52.9155 79.2311 52.2389 78.0716Z" fill="black"/>
<path d="M54.4135 86.6229C53.7369 85.4634 54.1235 84.0141 55.2833 83.3377C56.4431 82.6613 57.8928 83.0478 58.5694 84.2073C59.2459 85.3668 58.8593 86.8161 57.6995 87.4925C56.5398 88.1689 55.09 87.7824 54.4135 86.6229Z" fill="black"/>
<path d="M83.505 70.6317C82.3452 69.9553 81.9586 68.5059 82.6351 67.3465C83.3117 66.187 84.7614 65.8005 85.9212 66.4769C87.081 67.1532 87.4676 68.6026 86.7911 69.762C86.1145 70.8732 84.6648 71.308 83.505 70.6317Z" fill="black"/>
<path d="M76.1114 66.3802C74.9516 65.7038 74.565 64.2545 75.2416 63.095C75.9181 61.9355 77.3679 61.549 78.5277 62.2254C79.6875 62.9018 80.0741 64.3511 79.3975 65.5106C78.7693 66.6218 77.2712 67.0082 76.1114 66.3802Z" fill="black"/>
<path d="M68.6693 62.0806C67.5095 61.4043 67.1229 59.9549 67.7995 58.7954C68.476 57.636 69.9257 57.2495 71.0855 57.9258C72.2453 58.6022 72.6319 60.0515 71.9554 61.211C71.3272 62.3705 69.8291 62.757 68.6693 62.0806Z" fill="black"/>
<path d="M61.7589 58.0706C60.5991 57.3943 60.2125 55.9449 60.8891 54.7854C61.5656 53.626 63.0153 53.2395 64.1751 53.9158C65.3349 54.5922 65.7215 56.0415 65.045 57.201C64.3684 58.3122 62.8704 58.747 61.7589 58.0706Z" fill="black"/>
<path d="M61.5172 64.8826C60.3574 64.2063 59.9708 62.7569 60.6474 61.5974C61.3239 60.438 62.7736 60.0515 63.9334 60.7278C65.0932 61.4042 65.4798 62.8535 64.8033 64.013C64.1267 65.1242 62.677 65.559 61.5172 64.8826Z" fill="black"/>
<path d="M67.2679 70.9698C66.1081 70.2934 65.7215 68.8441 66.3981 67.6846C67.0746 66.5251 68.5244 66.1386 69.6842 66.815C70.844 67.4914 71.2306 68.9407 70.554 70.1002C69.8775 71.2597 68.4277 71.6462 67.2679 70.9698Z" fill="black"/>
<path d="M73.4051 77.2987C72.2453 76.6223 71.8588 75.1729 72.5353 74.0135C73.2118 72.854 74.6616 72.4675 75.8214 73.1438C76.9812 73.8202 77.3678 75.2696 76.6912 76.429C76.063 77.5885 74.5649 77.975 73.4051 77.2987Z" fill="black"/>
<path d="M90.6086 48.8915C89.3038 48.8915 88.1924 47.8286 88.1924 46.4759C88.1924 45.1232 89.2555 44.0603 90.6086 44.0603C91.9134 44.0603 93.0248 45.1232 93.0248 46.4759C93.0248 47.8286 91.9134 48.8915 90.6086 48.8915Z" fill="black"/>
<path d="M82.1035 48.8915C80.7987 48.8915 79.6873 47.8286 79.6873 46.4759C79.6873 45.1232 80.7504 44.0603 82.1035 44.0603C83.4083 44.0603 84.5197 45.1232 84.5197 46.4759C84.5197 47.8286 83.4083 48.8915 82.1035 48.8915Z" fill="black"/>
<path d="M73.5017 48.8915C72.1969 48.8915 71.0854 47.8286 71.0854 46.4759C71.0854 45.1232 72.1486 44.0603 73.5017 44.0603C74.8064 44.0603 75.9179 45.1232 75.9179 46.4759C75.9179 47.8286 74.8548 48.8915 73.5017 48.8915Z" fill="black"/>
<path d="M65.48 48.8915C64.1752 48.8915 63.0637 47.8286 63.0637 46.4759C63.0637 45.1232 64.1269 44.0603 65.48 44.0603C66.7847 44.0603 67.8962 45.1232 67.8962 46.4759C67.8962 47.8286 66.833 48.8915 65.48 48.8915Z" fill="black"/>
<path d="M68.7177 54.9303C67.413 54.9303 66.3015 53.8674 66.3015 52.5147C66.3015 51.162 67.3647 50.0991 68.7177 50.0991C70.0225 50.0991 71.134 51.162 71.134 52.5147C71.0857 53.8191 70.0225 54.9303 68.7177 54.9303Z" fill="black"/>
<path d="M76.7395 57.3461C75.3864 57.3461 74.3232 56.2832 74.3232 54.9305C74.3232 53.5777 75.3864 52.5149 76.7395 52.5149C78.0442 52.5149 79.1557 53.5777 79.1557 54.9305C79.1074 56.2349 78.0442 57.3461 76.7395 57.3461Z" fill="black"/>
<path d="M85.2446 59.7132C83.9398 59.7132 82.8284 58.6504 82.8284 57.2977C82.8284 55.9449 83.8915 54.8821 85.2446 54.8821C86.5977 54.8821 87.6608 55.9449 87.6608 57.2977C87.6125 58.6504 86.5494 59.7132 85.2446 59.7132Z" fill="black"/>
<path d="M85.9212 26.523C84.7614 27.1994 83.3117 26.8129 82.6351 25.6534C81.9586 24.4939 82.3452 23.0446 83.505 22.3682C84.6648 21.6919 86.1145 22.0783 86.7911 23.2378C87.4676 24.3973 87.0327 25.8467 85.9212 26.523Z" fill="black"/>
<path d="M78.5277 30.7745C77.3679 31.4508 75.9181 31.0644 75.2416 29.9049C74.565 28.7454 74.9516 27.296 76.1114 26.6197C77.2712 25.9433 78.721 26.3298 79.3975 27.4893C80.0741 28.6488 79.6875 30.0981 78.5277 30.7745Z" fill="black"/>
<path d="M71.0855 35.0743C69.9257 35.7507 68.476 35.3642 67.7995 34.2047C67.1229 33.0452 67.5095 31.5958 68.6693 30.9195C69.8291 30.2431 71.2788 30.6296 71.9554 31.7891C72.6319 32.9486 72.2453 34.3979 71.0855 35.0743Z" fill="black"/>
<path d="M64.1268 39.0841C62.967 39.7604 61.5173 39.3739 60.8407 38.2144C60.1642 37.055 60.5508 35.6056 61.7106 34.9292C62.8703 34.2529 64.3201 34.6394 64.9966 35.7989C65.6732 36.9583 65.2866 38.4077 64.1268 39.0841Z" fill="black"/>
<path d="M69.9259 42.7076C68.7661 43.384 67.3163 42.9975 66.6398 41.838C65.9632 40.6785 66.3498 39.2291 67.5096 38.5528C68.6694 37.8764 70.1192 38.2629 70.7957 39.4224C71.4723 40.5819 71.0857 42.0312 69.9259 42.7076Z" fill="black"/>
<path d="M78.0926 40.775C76.9328 41.4513 75.4831 41.0648 74.8065 39.9054C74.13 38.7459 74.5166 37.2965 75.6764 36.6202C76.8362 35.9438 78.2859 36.3303 78.9625 37.4898C79.639 38.6493 79.2524 40.0986 78.0926 40.775Z" fill="black"/>
<path d="M86.6461 38.6011C85.4863 39.2775 84.0365 38.891 83.36 37.7315C82.6835 36.5721 83.0701 35.1227 84.2298 34.4463C85.3896 33.77 86.8394 34.1565 87.5159 35.3159C88.1925 36.4754 87.8059 37.9248 86.6461 38.6011Z" fill="black"/>
<path d="M70.6507 9.51742C69.9741 10.6769 68.5244 11.0634 67.3646 10.387C66.2048 9.71067 65.8182 8.26132 66.4948 7.10184C67.1713 5.94236 68.621 5.55586 69.7808 6.23223C70.8923 6.90859 71.3272 8.35794 70.6507 9.51742Z" fill="black"/>
<path d="M66.398 16.8607C65.7215 18.0202 64.2717 18.4067 63.1119 17.7303C61.9521 17.0539 61.5655 15.6046 62.2421 14.4451C62.9186 13.2856 64.3684 12.8991 65.5282 13.5755C66.6396 14.2519 67.0745 15.7495 66.398 16.8607Z" fill="black"/>
<path d="M62.0972 24.3009C61.4207 25.4604 59.9709 25.8468 58.8111 25.1705C57.6514 24.4941 57.2648 23.0448 57.9413 21.8853C58.6178 20.7258 60.0676 20.3393 61.2274 21.0157C62.3872 21.692 62.7738 23.1414 62.0972 24.3009Z" fill="black"/>
<path d="M58.0862 31.2577C57.4097 32.4171 55.96 32.8036 54.8002 32.1273C53.6404 31.4509 53.2538 30.0016 53.9303 28.8421C54.6069 27.6826 56.0566 27.2961 57.2164 27.9725C58.3279 28.6488 58.7628 30.0982 58.0862 31.2577Z" fill="black"/>
<path d="M64.9 31.4991C64.2234 32.6586 62.7737 33.0451 61.6139 32.3687C60.4541 31.6924 60.0675 30.243 60.744 29.0835C61.4206 27.924 62.8703 27.5376 64.0301 28.2139C65.1899 28.8903 65.5765 30.3396 64.9 31.4991Z" fill="black"/>
<path d="M70.9888 25.7501C70.3123 26.9096 68.8625 27.2961 67.7027 26.6197C66.543 25.9433 66.1564 24.494 66.8329 23.3345C67.5094 22.175 68.9592 21.7885 70.119 22.4649C71.2788 23.1413 71.6654 24.5906 70.9888 25.7501Z" fill="black"/>
<path d="M77.3194 19.5663C76.6428 20.7257 75.1931 21.1122 74.0333 20.4359C72.8735 19.7595 72.4869 18.3101 73.1635 17.1507C73.84 15.9912 75.2898 15.6047 76.4495 16.2811C77.6093 16.9574 77.9959 18.4551 77.3194 19.5663Z" fill="black"/>
<path d="M48.9045 2.41558C48.9045 3.76831 47.8413 4.83117 46.4883 4.83117C45.1352 4.83117 44.072 3.76831 44.072 2.41558C44.072 1.11117 45.1352 0 46.4883 0C47.8413 0 48.9045 1.06286 48.9045 2.41558Z" fill="black"/>
<path d="M48.9045 10.9185C48.9045 12.2229 47.8413 13.3341 46.4883 13.3341C45.1352 13.3341 44.072 12.2712 44.072 10.9185C44.072 9.6141 45.1352 8.50293 46.4883 8.50293C47.8413 8.50293 48.9045 9.56579 48.9045 10.9185Z" fill="black"/>
<path d="M48.9045 19.5179C48.9045 20.8223 47.8413 21.9335 46.4883 21.9335C45.1352 21.9335 44.072 20.8706 44.072 19.5179C44.072 18.1652 45.1352 17.1023 46.4883 17.1023C47.8413 17.1023 48.9045 18.1652 48.9045 19.5179Z" fill="black"/>
<path d="M48.9045 27.5377C48.9045 28.8421 47.8413 29.9532 46.4883 29.9532C45.1352 29.9532 44.072 28.8904 44.072 27.5377C44.072 26.1849 45.1352 25.1221 46.4883 25.1221C47.8413 25.1221 48.9045 26.1849 48.9045 27.5377Z" fill="black"/>
<path d="M54.945 24.3008C54.945 25.6053 53.8819 26.7164 52.5288 26.7164C51.1757 26.7164 50.1125 25.6536 50.1125 24.3008C50.1125 22.9964 51.1757 21.8853 52.5288 21.8853C53.8335 21.8853 54.945 22.9964 54.945 24.3008Z" fill="black"/>
<path d="M57.3613 16.2811C57.3613 17.6338 56.2981 18.6966 54.945 18.6966C53.6403 18.6966 52.5288 17.6338 52.5288 16.2811C52.5288 14.9766 53.592 13.8655 54.945 13.8655C56.2498 13.8655 57.3613 14.9766 57.3613 16.2811Z" fill="black"/>
<path d="M59.7292 7.77813C59.7292 9.08255 58.6661 10.1937 57.313 10.1937C55.9599 10.1937 54.8967 9.13086 54.8967 7.77813C54.8967 6.42541 55.9599 5.36255 57.313 5.36255C58.6661 5.36255 59.7292 6.47372 59.7292 7.77813Z" fill="black"/>
<path d="M26.5303 7.10184C27.2069 8.26132 26.8203 9.71067 25.6605 10.387C24.5007 11.0634 23.051 10.6769 22.3744 9.51742C21.6979 8.35794 22.0845 6.90859 23.2443 6.23223C24.404 5.55586 25.8538 5.94236 26.5303 7.10184Z" fill="black"/>
<path d="M30.7828 14.4934C31.4593 15.6529 31.0727 17.1023 29.9129 17.7786C28.7531 18.455 27.3034 18.0685 26.6268 16.909C25.9503 15.7495 26.3369 14.3002 27.4967 13.6238C28.6565 12.9475 30.1062 13.334 30.7828 14.4934Z" fill="black"/>
<path d="M35.0838 21.8852C35.7603 23.0447 35.3737 24.4941 34.214 25.1704C33.0542 25.8468 31.6044 25.4603 30.9279 24.3008C30.2513 23.1414 30.6379 21.692 31.7977 21.0156C32.9575 20.3393 34.4072 20.7741 35.0838 21.8852Z" fill="black"/>
<path d="M39.0945 28.842C39.7711 30.0015 39.3845 31.4509 38.2247 32.1272C37.0649 32.8036 35.6152 32.4171 34.9386 31.2576C34.2621 30.0981 34.6487 28.6488 35.8085 27.9724C36.9683 27.2961 38.418 27.7309 39.0945 28.842Z" fill="black"/>
<path d="M42.719 23.0447C43.3956 24.2042 43.009 25.6535 41.8492 26.3299C40.6894 27.0062 39.2397 26.6197 38.5631 25.4603C37.8866 24.3008 38.2732 22.8514 39.433 22.1751C40.5928 21.4987 42.0425 21.9335 42.719 23.0447Z" fill="black"/>
<path d="M40.7859 14.9283C41.4625 16.0877 41.0759 17.5371 39.9161 18.2134C38.7563 18.8898 37.3066 18.5033 36.63 17.3438C35.9535 16.1844 36.3401 14.735 37.4999 14.0586C38.6597 13.3823 40.1094 13.7688 40.7859 14.9283Z" fill="black"/>
<path d="M38.6114 6.32885C39.2879 7.48833 38.9013 8.93768 37.7415 9.61405C36.5817 10.2904 35.132 9.90392 34.4555 8.74444C33.7789 7.58496 34.1655 6.13561 35.3253 5.45924C36.4851 4.78288 37.9348 5.21768 38.6114 6.32885Z" fill="black"/>
<path d="M9.51986 22.3682C10.6797 23.0446 11.0662 24.4939 10.3897 25.6534C9.71316 26.8129 8.26342 27.1994 7.10363 26.523C5.94383 25.8467 5.55724 24.3973 6.23378 23.2378C6.91033 22.0783 8.36007 21.6919 9.51986 22.3682Z" fill="black"/>
<path d="M16.8653 26.6197C18.0251 27.296 18.4117 28.7454 17.7352 29.9049C17.0586 31.0644 15.6089 31.4508 14.4491 30.7745C13.2893 30.0981 12.9027 28.6488 13.5792 27.4893C14.2558 26.3298 15.7539 25.9433 16.8653 26.6197Z" fill="black"/>
<path d="M24.3072 30.9195C25.467 31.5958 25.8536 33.0452 25.1771 34.2047C24.5005 35.3642 23.0508 35.7507 21.891 35.0743C20.7312 34.3979 20.3446 32.9486 21.0211 31.7891C21.6977 30.6296 23.1474 30.2431 24.3072 30.9195Z" fill="black"/>
<path d="M31.266 34.9292C32.4257 35.6056 32.8123 37.055 32.1358 38.2144C31.4593 39.3739 30.0095 39.7604 28.8497 39.0841C27.6899 38.4077 27.3033 36.9583 27.9799 35.7989C28.6564 34.6394 30.1062 34.2529 31.266 34.9292Z" fill="black"/>
<path d="M31.5076 28.1175C32.6674 28.7938 33.054 30.2432 32.3775 31.4027C31.701 32.5622 30.2512 32.9487 29.0914 32.2723C27.9316 31.5959 27.545 30.1466 28.2216 28.9871C28.8981 27.8276 30.3479 27.4411 31.5076 28.1175Z" fill="black"/>
<path d="M25.7572 22.0301C26.917 22.7064 27.3036 24.1558 26.627 25.3153C25.9505 26.4748 24.5007 26.8612 23.3409 26.1849C22.1811 25.5085 21.7945 24.0592 22.4711 22.8997C23.1476 21.7402 24.5974 21.3537 25.7572 22.0301Z" fill="black"/>
<path d="M19.5714 15.6529C20.7312 16.3292 21.1178 17.7786 20.4412 18.9381C19.7647 20.0975 18.3149 20.484 17.1551 19.8077C15.9953 19.1313 15.6088 17.682 16.2853 16.5225C16.9618 15.4113 18.4599 15.0248 19.5714 15.6529Z" fill="black"/>
</svg>
